<svg width="42" height="45" viewBox="0 0 42 45" fill="none" xmlns="http://www.w3.org/2000/svg">
<path d="M8 36.1464C3.71675 32.487 1 27.037 1 20.9503C1 9.93207 9.90265 1 20.8846 1C31.8666 1 40.7692 9.93207 40.7692 20.9503C40.7692 30.553 34.0072 38.5711 25 40.4729" stroke="url(#paint0_radial_35_5)" stroke-linecap="round"/>
<path d="M32.0986 21.6321C32.0417 21.107 32.1084 20.3553 31.974 19.9389C31.974 19.9346 31.9718 19.926 31.9691 19.9114C31.6785 21.0649 32.0412 22.3404 31.4413 23.4087C30.9365 24.0826 30.9517 24.8888 31.0029 25.6816C31.0345 27.0087 31.1364 28.3384 31.1306 29.6646C30.965 30.6929 29.9529 29.6607 29.3899 29.8915C28.8442 30.1923 28.388 29.8163 28.263 29.2804C27.9492 29.9104 28.2011 30.4368 28.7833 30.7093C29.0151 30.8571 29.0681 31.4399 28.6671 31.3677C27.6403 31.1996 26.8681 31.8507 25.9196 32.0209C26.5534 32.3591 28.3635 31.3333 28.2576 32.5593C28.2038 33.1988 27.2945 32.8413 27.1133 33.4399C27.8103 34.0205 27.4511 35.1271 26.6237 35.3978C23.9564 35.8628 21.378 34.2147 19.0979 33.0699C17.3715 32.0028 16.463 30.1411 16.1132 28.2498C15.9561 27.848 17.5927 28.6228 17.8406 28.2361C14.7695 27.9043 13.6915 19.9982 17.813 22.927C18.1997 23.3632 18.396 23.9197 18.5224 24.4741C18.5224 24.9631 19.5813 23.771 20.7661 24.41C22.3318 24.9309 23.2171 23.4276 24.3636 22.7241C25.3846 22.0236 26.528 21.4671 27.4409 20.6385C27.8468 20.287 26.3634 20.5706 26.1475 20.0244C25.6081 19.4387 24.7722 19.0923 24.0556 19.5947C23.4891 20.0339 22.574 20.6639 22.4827 21.3304C23.7792 19.8285 24.5746 19.5685 26.233 20.7752C26.451 20.841 26.4034 20.9497 26.2899 21.0515C25.9868 21.339 25.5742 21.1805 25.2217 21.0945C24.2929 20.6987 23.1268 20.9712 23.0133 22.043C23.271 21.5612 24.6832 20.9634 24.8109 21.6265C23.5825 22.5037 22.6127 24.3318 20.8466 23.9064C20.2386 23.7345 19.4286 23.5243 19.0895 23.0065C19.9796 23.3967 21.2824 23.6941 21.9949 22.8801C18.7423 24.401 18.3417 19.0833 15.9227 20.6626C16.8934 20.556 18.5082 22.2682 16.9687 21.8479C15.779 21.4181 15.09 23.0443 13.9987 22.4306C12.9727 21.6351 14.6186 22.3803 14.8301 21.7039C14.9476 21.5569 14.8416 21.446 14.6818 21.526C13.5647 21.8199 13.4125 21.4976 12.6545 20.9982C12.6452 21.1465 12.938 21.6493 12.6291 21.5939C12.3706 21.6085 11.5743 20.9493 11.9019 21.4615C12.4996 22.1272 13.9675 22.7482 13.5487 23.7822C13.076 23.1444 13.0266 23.101 12.6719 23.0297C12.882 23.428 13.0787 23.8178 13.056 24.2712C12.5975 23.8372 12.5134 23.0228 11.7354 22.856C11.427 22.7469 11.0073 22.4057 11.0776 22.0825C11.561 22.3949 11.8814 22.5664 12.3078 22.4358C11.7421 21.9708 10.9401 21.706 10.8435 20.7726C10.9152 20.4464 10.0998 19.1989 10.4941 19.2487C10.7792 19.4181 10.9966 19.6756 11.111 19.9793C12.5094 21.777 12.0857 20.2058 11.2547 19.3063C10.9908 18.8379 9.3645 17.6973 9.47176 18.8018C9.81581 19.8392 10.3054 20.9394 9.93019 22.0365C9.34091 23.343 9.06941 21.3489 8.97862 20.8332C8.84954 20.4787 8.93411 19.9346 8.70667 19.6785C8.54155 19.8787 8.61766 20.2586 8.60297 20.5195C8.94079 22.3885 8.46945 25.1922 9.95601 26.8329C10.1616 27.9967 10.7376 29.0281 11.9112 29.5833C12.5174 30.6577 12.1151 32.2409 12.1066 33.4756C11.9077 35.9776 10.325 37.9548 8.92565 39.9579C5.42289 46.8283 10.3699 39.1908 17.1454 41.5841C20.2093 42.5764 22.967 44.374 26.192 44.9052C28.9786 45.6624 21.9193 41.6601 21.6268 40.8724C21.2085 39.4972 21.9776 37.8848 22.0844 36.4516C22.1703 36.0064 22.0715 35.9875 22.663 36.0132C23.9724 36.082 25.301 36.1559 26.5975 35.9174C28.7272 35.562 27.2063 33.6505 28.2585 33.1747C28.8331 33.0591 28.5994 32.4377 28.6373 32.0574C28.7027 31.8812 28.9488 31.9229 29.1064 31.8395C29.7295 31.5662 28.9052 30.4991 29.8421 30.4948C30.6299 30.6087 31.6731 30.6354 31.5597 29.5704C31.553 28.0809 31.4061 26.5962 31.395 25.1066C31.3723 23.8844 32.3434 22.8956 32.0986 21.6321ZM11.8543 27.949C10.872 27.1952 9.68985 26.4479 9.89592 25.0641C10.2965 25.6963 10.45 26.3297 11.1101 26.7599C11.3384 26.8471 12.4071 28.1965 11.8543 27.949ZM12.2077 26.5429C11.1907 26.3044 10.7741 25.4573 10.548 24.5454C10.5253 24.0013 9.04226 22.431 10.4589 23.3481C10.548 23.4182 10.5885 23.5428 10.7202 23.5583C10.7798 23.3924 10.4087 22.8707 10.7705 23.055C12.1129 23.7426 11.2601 25.3176 12.2161 26.2395C12.3648 26.3392 12.5357 26.6456 12.2077 26.5429ZM21.3829 35.932C21.0353 37.3828 20.8395 38.859 20.5778 40.3249C19.9809 40.832 18.842 39.9313 18.3079 39.5312C17.4071 38.8973 14.5919 35.1752 15.9281 38.4998C15.9646 38.8436 16.634 39.795 16.0376 39.8427C13.8211 38.6931 13.6034 35.4593 14.5537 33.4279C15.0361 32.5589 16.0465 32.7248 16.7248 33.2775C18.056 34.479 20.0214 35.0003 21.3829 35.932ZM23.0093 22.0464C23.0137 22.0464 23.0173 22.0464 23.0137 22.04C23.0118 22.0421 23.01 22.0444 23.0084 22.0468L23.0093 22.0464ZM12.0287 20.8345H12.0341C12.0341 20.8345 12.0301 20.8315 12.0287 20.8345Z" fill="#000"/>
<path d="M33.1072 16.1692C32.6087 15.0462 31.9148 13.6302 30.4545 13.6023C30.2863 13.6199 30.2169 13.5082 30.2213 13.3595C30.2867 11.9843 24.5354 15.4747 23.6555 15.6706C22.9167 15.9427 24.96 14.2924 25.1149 14.0621C26.735 12.7148 28.1179 10.5631 30.2627 10.0577C30.4826 10.1699 30.5791 10.0147 30.5702 9.80673C30.9178 8.55143 29.5354 7.97987 28.4646 7.87501C27.3928 7.87157 26.9874 9.15781 26.387 9.83423C26.2209 10.1149 26.0434 10.386 25.7403 10.0667C24.6721 9.38557 23.6199 8.65844 22.294 8.54584C23.2265 8.98978 24.5742 9.38557 24.928 10.3289C24.6329 10.1999 24.4121 9.87935 24.0685 9.89912C24.2212 10.053 24.5661 10.9628 24.2181 10.6452C23.7045 9.83337 22.8156 9.35076 21.9344 8.99235C20.3797 8.39071 19.563 10.3607 16.4751 10.0431C18.3991 10.9426 20.8057 8.80627 22.6688 10.2648C22.6145 9.87334 22.0955 9.81145 21.9046 9.49688C23.0466 9.64385 23.4036 10.7358 24.0815 11.4737C24.632 12.1562 24.1024 11.695 23.7218 11.579C23.903 11.9555 24.4282 12.3526 24.2314 12.7475C24.0223 13.0023 23.0547 11.1656 22.4324 11.0113C21.1947 10.1561 19.66 10.5068 18.3898 11.1011C17.0341 11.7311 15.7981 10.1346 14.4629 10.7904C13.3991 11.0668 12.9941 12.3981 12.0087 12.6156C9.59238 12.5266 13.0226 11.6271 13.3484 10.8755C13.7045 10.4376 14.2314 10.2567 14.6707 9.93565C14.2701 9.85701 13.9648 10.1505 13.5981 10.1729C13.9168 9.5188 14.8229 9.27556 15.5284 9.20422C16.3295 9.13632 17.124 9.29962 17.9238 9.32369C22.5366 8.70915 18.0404 7.6438 16.2543 8.25705C16.8707 8.33742 17.4382 8.41348 17.9162 8.75041C15.9241 8.46849 13.6061 8.73021 12.6812 10.7599C12.456 11.3306 11.6963 11.206 11.3834 11.7054C10.8204 12.4132 10.3851 13.2039 9.88925 13.9529C9.55277 14.8 8.05464 17.0403 9.24299 18.0656C9.54654 17.4975 10.0192 17.0523 10.7674 17.3432C12.0581 18.1267 10.9659 16.2646 10.2021 16.6341C8.46633 17.4455 10.4621 15.9586 10.7767 15.6027C10.3063 15.6728 9.98805 16.0755 9.56612 16.1945C9.82471 14.8563 10.6169 14.1966 11.7221 13.3852C12.4952 12.6169 12.8708 14.8339 13.6297 13.6633C14.0623 12.7492 15.2088 12.5266 15.9187 12.059C15.2689 12.0238 14.6494 12.3135 14.1202 12.6521C14.065 12.6869 14.0116 12.7591 13.9136 12.6693C14.7593 11.423 15.7095 11.1875 17.128 11.6972C18.8193 11.9443 19.1233 10.5193 21.0411 11.9078C21.4364 12.1794 23.6506 13.9052 22.7818 14.1777C21.4711 14.5215 20.5662 12.0779 19.1878 12.8313C18.0894 13.9856 17.2624 14.6977 15.5506 14.1657C13.8731 14.1064 14.2697 15.2284 12.0172 14.4931C11.6166 14.5894 11.1239 14.7243 10.8876 15.0518C11.7675 14.9633 12.6799 14.8614 13.2736 15.6788C13.7565 16.3741 14.8176 16.595 15.4011 15.8413C15.0584 15.9513 14.1362 16.0561 14.1687 15.6496C14.4835 15.5891 14.7627 15.4154 14.9498 15.1635C15.357 14.6234 16.0625 15.1098 16.5841 15.2138C18.0564 15.7484 18.3813 13.5718 19.6654 13.564C20.1728 13.6122 20.7082 13.8219 21.0451 14.2026C20.4193 14.1416 19.7393 13.8588 19.1722 14.3019C18.7993 14.6844 20.4131 14.225 20.4812 14.7269C19.4371 14.8043 18.1023 14.8481 17.3456 15.5761C18.3978 15.1335 19.1451 16.2267 20.1732 15.993C17.4137 15.1949 20.2013 14.613 21.1924 15.4635C23.2843 14.8481 24.8323 12.7041 26.1204 11.0272C27.0608 10.062 27.8188 7.77531 29.4317 8.98677C29.8768 9.19562 27.0021 11.4449 26.7021 11.9654C25.4291 13.2301 24.1464 14.5082 22.6314 15.5065C22.0577 15.9676 21.2196 16.1593 20.6597 16.4949C22.3096 16.8348 23.8643 15.8885 25.374 15.3797C27.3937 14.843 30.4091 12.8652 31.986 15.0492C32.6643 15.8713 32.9852 17.112 32.6888 18.1344C32.614 18.2457 32.7151 18.3364 32.8308 18.2556C33.2527 18.1396 33.279 16.4932 33.1072 16.1692ZM17.9162 8.75041C17.9234 8.75041 17.8944 8.76631 17.8949 8.76717L17.9162 8.75041ZM23.4797 13.564C22.4716 12.7045 21.7368 11.2864 20.2173 10.9052C21.0474 10.6538 21.7461 10.8128 22.3537 11.3444C22.7306 11.8132 24.2693 13.0634 23.4797 13.5653V13.564ZM24.3485 11.8798C24.3236 11.8695 24.3196 11.8532 24.3365 11.8321C24.3538 11.8467 24.3699 11.8661 24.3485 11.8811V11.8798ZM22.6759 10.27L22.6688 10.2648C22.6688 10.2696 22.6661 10.2743 22.6643 10.279L22.6759 10.27ZM19.0672 14.4768C19.0672 14.4686 19.0672 14.4665 19.0583 14.4678L19.0672 14.4768ZM10.7794 15.5916C10.7796 15.5962 10.7796 15.6007 10.7794 15.6053L10.7914 15.6023L10.7794 15.5916Z" fill="#000"/>
<path d="M22.5352 20.3747C22.0154 21.431 20.8226 21.6055 19.7655 21.2402C19.891 21.8264 20.686 22.1663 21.2681 22.0408C18.441 23.8887 18.8313 17.1374 15.3993 20.0356C14.8238 20.6691 14.0525 21.4456 13.2077 20.8212C12.7756 20.7047 11.6945 19.097 12.7021 19.6484C14.8959 20.709 15.4545 16.7962 17.4235 17.6814C17.1934 17.9088 16.715 17.9131 16.5254 18.2711C16.3099 18.516 17.2459 18.4 17.4222 18.721C18.8616 20.1254 20.4937 21.9708 22.5352 20.3747Z" fill="#000"/>
<path d="M19.3205 16.7068C20.5368 18.464 22.9421 17.4288 24.2675 18.7167C22.5513 17.7528 20.4349 19.9002 19.0507 18.1237C18.5558 17.326 18.0716 16.4476 16.9687 16.4812C15.6904 16.4133 15.2818 17.8108 14.5207 18.5405C13.3715 19.8787 11.6851 18.9114 11.7742 17.32C13.0538 20.0829 14.5096 17.6827 15.8417 16.5134C17.2175 15.4846 18.5166 16.8237 19.3423 17.8486C19.8764 18.4073 20.8426 18.7146 21.561 18.3501C20.5809 18.0906 19.6173 17.8551 19.3205 16.7068Z" fill="#000"/>
<path d="M30.1643 23.3928C28.6827 23.2514 27.1676 23.7757 25.7496 24.1397C26.2499 25.4642 27.7284 24.303 28.7414 24.3215C28.8954 24.2433 29.5248 24.4178 29.1909 24.5437C28.6217 24.4801 28.092 24.6915 27.5713 24.8806C26.6242 25.0525 27.7111 25.8488 28.036 26.1595C28.7063 26.8751 31.3887 23.6747 30.1643 23.3928ZM28.9987 25.3159C28.9542 26.3542 27.2531 25.4088 27.6755 25.0555C28.0084 24.9902 29.0076 24.7044 28.9987 25.3159Z" fill="#000"/>
<path d="M31.2877 16.1821C30.0019 14.6822 29.8074 16.5306 28.4695 16.6341C29.5252 17.5276 30.5204 15.2289 31.1982 16.9302C30.4105 16.0278 29.7397 17.372 28.8767 17.1125C28.3515 16.8886 27.6946 16.8146 27.3123 16.3681C27.1031 16.097 26.8267 16.1129 26.5369 16.1558C26.3723 16.2878 25.1505 16.4567 25.5466 16.1451C25.8097 16.0724 26.0446 15.926 26.2214 15.7244C26.9032 15.2456 27.7792 16.1971 28.5532 16.1541C29.4825 16.2293 30.1461 13.7041 31.2877 16.1821Z" fill="#000"/>
<path d="M18.9363 19.0055C21.1831 20.8882 21.5049 18.6785 23.5652 18.871C23.5349 18.9763 23.4681 18.9793 23.4138 18.9883C22.78 19.0824 22.4151 19.6033 21.9771 19.9956C20.9356 21.1542 19.2848 20.2917 18.9363 19.0055Z" fill="#000"/>
<path d="M29.1607 18.6849C29.2368 18.8602 29.4188 18.8633 29.5212 18.9664C27.8152 18.8087 28.5905 17.3716 25.7825 17.8164C28.1303 16.5658 28.5794 18.314 29.5973 18.1684C29.9494 18.0343 30.3152 17.8117 30.5609 18.2693C30.0014 18.0601 29.6556 18.5431 29.1607 18.6849Z" fill="#000"/>
<path d="M15.7874 23.9214C15.9343 22.382 17.9487 23.0688 17.4298 24.3851C17.3853 24.453 17.3853 24.5871 17.4987 24.5664C18.0124 24.1904 17.8401 24.9163 17.695 25.1483C17.3808 25.6211 16.4933 25.3374 16.6656 24.7345C16.6896 24.3701 17.1529 23.9717 16.8819 23.6343C16.4755 23.2385 16.0838 23.6837 15.7874 23.9214Z" fill="#000"/>
<path d="M16.6963 12.5086C17.3528 12.9916 18.0101 12.359 18.6818 12.3891C17.938 12.9615 17.2406 14.1081 16.1987 13.3186C15.6116 12.8988 14.9876 13.4403 14.4224 13.5675C14.6218 13.1068 14.9093 12.9091 15.3722 12.9082C15.8595 12.8266 17.2673 13.5851 17.335 12.9082C17.1026 12.7999 16.8124 12.7514 16.6963 12.5086Z" fill="#000"/>
<path d="M28.9933 19.4073C27.9941 19.8225 27.4422 18.7154 26.4564 18.8555C25.6917 18.9625 27.2682 19.9479 27.533 20.0369C26.8209 20.1082 26.4168 19.6175 26.0104 19.1284C25.9121 18.9789 25.3428 18.8727 25.7127 18.7489C27.4876 18.0205 27.5646 19.0811 28.9933 19.4073Z" fill="#000"/>
<path d="M27.0265 13.1944C27.7338 12.3857 28.9657 11.8283 29.9356 11.2606C30.353 10.9877 30.7416 11.8394 30.3161 11.9202C29.1429 12.0625 28.0311 12.6366 27.0203 13.1949L27.0265 13.1944Z" fill="#000"/>
<path d="M12.7533 16.9698C12.9122 17.0458 13.0698 17.1288 13.3008 17.0665C13.0275 16.8245 12.6937 16.6797 12.6149 16.3501C13.2442 16.9221 14.0392 16.8752 14.8194 16.7798C14.5866 17.6032 12.9928 17.8955 12.7533 16.9698Z" fill="#000"/>
<path d="M23.461 16.7171C24.4121 16.9049 25.1706 16.9672 26.0843 16.8482C25.455 17.837 24.2248 17.5925 23.461 16.7171Z" fill="#000"/>
<path d="M16.3954 25.7831C16.8138 26.1367 17.2682 26.0435 17.7511 25.9077C18.0974 27.3925 15.9677 26.2627 15.9855 25.395C15.9855 25.395 16.2374 25.67 16.3954 25.7831Z" fill="#000"/>
<path d="M31.3874 18.2775C30.6655 17.3927 29.9578 17.88 29.162 17.5994C29.9057 17.3978 31.2766 17.1271 31.3874 18.2775Z" fill="#000"/>
<path d="M10.7888 15.601L10.8537 15.5581C10.8666 15.6427 10.7656 15.5675 10.7888 15.601Z" fill="#000"/>
<path d="M22.6639 10.2816C22.6906 10.2792 22.7172 10.2864 22.7387 10.3019C22.7601 10.3174 22.7749 10.34 22.78 10.3654C22.7435 10.3426 22.7004 10.2618 22.6639 10.2816Z" fill="#000"/>
<path d="M31.322 17.0454C31.2824 17.0166 31.2405 16.9204 31.1982 16.9302C31.2708 16.9397 31.277 17.0093 31.322 17.0454Z" fill="#000"/>
<path d="M12.7622 16.9782L12.7306 16.9908C12.7386 16.9863 12.7555 16.9603 12.7622 16.9782Z" fill="#000"/>
<path d="M22.5277 20.3833L22.5228 20.3506C22.5255 20.3583 22.5415 20.3773 22.5277 20.3833Z" fill="#000"/>
<path d="M12.0287 20.8345L12.0505 20.8079C12.0439 20.8152 12.0412 20.8358 12.0287 20.8345Z" fill="#000"/>
<path d="M19.3405 16.7089L19.3142 16.7296C19.3792 16.7519 19.296 16.699 19.3405 16.7089Z" fill="#000"/>
<path d="M12.6354 16.3531L12.6069 16.3754C12.675 16.4017 12.5935 16.3411 12.6354 16.3531Z" fill="#000"/>
<path d="M31.2721 16.1726C31.3313 16.1614 31.2841 16.2207 31.3011 16.1653C31.3064 16.1472 31.281 16.1464 31.2868 16.1812L31.2721 16.1726Z" fill="#000"/>
<path d="M21.1933 15.4635L21.2031 15.4906C21.1982 15.4816 21.1742 15.4712 21.1933 15.4635Z" fill="#000"/>
<path d="M19.0583 14.4678C19.0316 14.5198 19.1099 14.4747 19.0547 14.4979C19.0102 14.5129 19.0249 14.4549 19.0672 14.4768L19.0583 14.4678Z" fill="#000"/>
<path d="M16.7145 12.5163C16.6553 12.5283 16.7043 12.4652 16.6927 12.5219C16.69 12.5356 16.7123 12.5352 16.6994 12.509L16.7145 12.5163Z" fill="#000"/>
<path d="M22.7823 10.3551L22.7885 10.3757C22.8237 10.337 22.78 10.3697 22.7823 10.3551Z" fill="#000"/>
<path d="M31.3077 17.0364L31.3313 17.0321C31.2904 16.9913 31.3367 17.06 31.3077 17.0364Z" fill="#000"/>
<defs>
<radialGradient id="paint0_radial_35_5" cx="0" cy="0" r="1" gradientUnits="userSpaceOnUse" gradientTransform="translate(20.8846 1) rotate(90) scale(39 24.8191)">
<stop stop-color="#F7D587"/>
<stop offset="0.595199" stop-color="#8A5B08"/>
<stop offset="1" stop-opacity="0"/>
</radialGradient>
</defs>
</svg>
